<?xml version="1.0" encoding="UTF-8"?>
<!DOCTYPE svg PUBLIC "-//W3C//DTD SVG 1.1//EN" "http://www.w3.org/Graphics/SVG/1.1/DTD/svg11.dtd">
<svg xmlns="http://www.w3.org/2000/svg" version="1.1" width="500px" height="500px" style="shape-rendering:geometricPrecision; text-rendering:geometricPrecision; image-rendering:optimizeQuality; fill-rule:evenodd; clip-rule:evenodd" xmlns:xlink="http://www.w3.org/1999/xlink">
<g><path style="opacity:1" fill="#fefaf8" d="M 327.5,127.5 C 324.898,130.387 324.898,133.387 327.5,136.5C 326.652,138.283 325.319,138.783 323.5,138C 318.434,128.913 313.1,120.08 307.5,111.5C 303.644,104.291 299.644,97.1244 295.5,90C 295.833,89.5 296.167,89 296.5,88.5C 303.446,90.4867 310.446,92.3201 317.5,94C 322.12,99.4081 326.62,104.908 331,110.5C 331.667,112.5 331.667,114.5 331,116.5C 329.722,120.165 328.556,123.832 327.5,127.5 Z"/></g>
<g><path style="opacity:1" fill="#fef5f3" d="M 306.5,113.5 C 310.889,121.94 315.556,130.274 320.5,138.5C 320.333,138.833 320.167,139.167 320,139.5C 314.895,135.04 309.728,130.706 304.5,126.5C 300.501,122.67 296.335,119.003 292,115.5C 291.131,107.735 291.631,100.068 293.5,92.5C 297.498,99.8049 301.832,106.805 306.5,113.5 Z"/></g>
<g><path style="opacity:1" fill="#fefdfd" d="M 439.5,113.5 C 450.477,129.801 461.81,145.801 473.5,161.5C 474.391,163.609 475.558,165.609 477,167.5C 477.667,168.5 477.667,169.5 477,170.5C 465.661,180.672 454.828,191.339 444.5,202.5C 432.066,213.432 420.066,224.932 408.5,237C 407.552,237.483 406.552,237.649 405.5,237.5C 402.737,228.535 399.404,219.868 395.5,211.5C 389.566,196.013 384.066,180.346 379,164.5C 378.829,157.321 378.329,150.321 377.5,143.5C 377.169,135.472 377.502,127.472 378.5,119.5C 381.568,118.309 384.235,116.642 386.5,114.5C 399.902,109.219 413.069,103.219 426,96.5C 427.261,96.7591 428.261,97.4258 429,98.5C 432.03,103.916 435.53,108.916 439.5,113.5 Z"/></g>
<g><path style="opacity:0.949" fill="#e75227" d="M 377.5,115.5 C 377.5,116.5 377.5,117.5 377.5,118.5C 375.833,118.5 374.167,118.5 372.5,118.5C 363.676,113.585 355.343,107.919 347.5,101.5C 345.898,99.9261 343.898,99.2594 341.5,99.5C 340.175,98.0474 339.342,98.3808 339,100.5C 335.529,109.745 332.363,119.079 329.5,128.5C 328.075,130.031 327.409,129.698 327.5,127.5C 328.556,123.832 329.722,120.165 331,116.5C 331.667,114.5 331.667,112.5 331,110.5C 326.62,104.908 322.12,99.4081 317.5,94C 310.446,92.3201 303.446,90.4867 296.5,88.5C 296.167,89 295.833,89.5 295.5,90C 299.644,97.1244 303.644,104.291 307.5,111.5C 306.662,111.842 306.328,112.508 306.5,113.5C 301.832,106.805 297.498,99.8049 293.5,92.5C 291.631,100.068 291.131,107.735 292,115.5C 296.335,119.003 300.501,122.67 304.5,126.5C 305.343,129.516 306.843,132.183 309,134.5C 312.307,136.64 315.474,138.974 318.5,141.5C 316.294,143.085 313.961,144.585 311.5,146C 312.056,146.383 312.389,146.883 312.5,147.5C 312.167,147.5 311.833,147.5 311.5,147.5C 308.594,148.412 306.261,150.078 304.5,152.5C 304.343,151.127 304.51,149.793 305,148.5C 308.242,145.795 311.742,143.461 315.5,141.5C 310.716,138.55 306.716,134.717 303.5,130C 298.422,126.045 293.256,122.211 288,118.5C 287.335,108.471 287.668,98.4709 289,88.5C 293.064,85.7153 297.564,84.882 302.5,86C 308.208,87.177 313.874,88.5103 319.5,90C 323.631,95.7361 328.131,101.236 333,106.5C 333.903,102.195 335.737,98.3612 338.5,95C 341.322,95.7679 344.322,96.4345 347.5,97C 356.675,103.087 365.675,109.421 374.5,116C 375.577,116.47 376.577,116.303 377.5,115.5 Z"/></g>
<g><path style="opacity:0.942" fill="#e74e22" d="M 451.5,125.5 C 448.479,122.634 445.979,119.3 444,115.5C 442.67,114.418 441.17,113.751 439.5,113.5C 435.53,108.916 432.03,103.916 429,98.5C 428.261,97.4258 427.261,96.7591 426,96.5C 413.069,103.219 399.902,109.219 386.5,114.5C 384.173,114.247 382.173,114.914 380.5,116.5C 379.817,116.137 379.15,115.804 378.5,115.5C 394.363,107.095 410.697,99.4286 427.5,92.5C 429.029,92.5288 430.196,93.1955 431,94.5C 438.351,104.547 445.184,114.881 451.5,125.5 Z"/></g>
<g><path style="opacity:1" fill="#fefaf9" d="M 341.5,99.5 C 346.443,108.946 351.609,118.28 357,127.5C 356.889,134.563 356.056,141.563 354.5,148.5C 351.878,158.992 349.545,169.658 347.5,180.5C 343.552,169.65 339.218,158.983 334.5,148.5C 332.07,142.013 330.403,135.346 329.5,128.5C 332.363,119.079 335.529,109.745 339,100.5C 339.342,98.3808 340.175,98.0474 341.5,99.5 Z"/></g>
<g><path style="opacity:1" fill="#fefaf9" d="M 347.5,101.5 C 355.343,107.919 363.676,113.585 372.5,118.5C 374.037,129.405 375.037,140.405 375.5,151.5C 375.827,156.214 375.493,160.88 374.5,165.5C 367.407,170.034 360.741,175.034 354.5,180.5C 352.983,180.511 351.816,181.177 351,182.5C 350.536,181.906 350.369,181.239 350.5,180.5C 351.912,172.44 353.579,164.44 355.5,156.5C 357.26,147.625 359.26,138.792 361.5,130C 356.38,120.929 351.38,111.763 346.5,102.5C 346.624,101.893 346.957,101.56 347.5,101.5 Z"/></g>
<g><path style="opacity:1" fill="#fefcfc" d="M 164.5,127.5 C 172.269,138.053 180.269,148.386 188.5,158.5C 194.618,166.566 200.618,174.732 206.5,183C 192.452,189.3 178.119,195.133 163.5,200.5C 163.169,175.994 163.502,151.661 164.5,127.5 Z"/></g>
<g><path style="opacity:1" fill="#e75d3e" d="M 341.5,99.5 C 343.898,99.2594 345.898,99.9261 347.5,101.5C 346.957,101.56 346.624,101.893 346.5,102.5C 351.38,111.763 356.38,120.929 361.5,130C 359.26,138.792 357.26,147.625 355.5,156.5C 354.503,156.53 353.836,156.03 353.5,155C 354.287,152.901 354.62,150.734 354.5,148.5C 356.056,141.563 356.889,134.563 357,127.5C 351.609,118.28 346.443,108.946 341.5,99.5 Z"/></g>
<g><path style="opacity:0.976" fill="#db4c31" d="M 439.5,113.5 C 441.17,113.751 442.67,114.418 444,115.5C 445.979,119.3 448.479,122.634 451.5,125.5C 461.555,138.061 471.055,151.061 480,164.5C 481.733,169.232 481.9,173.899 480.5,178.5C 479.182,175.435 479.182,172.269 480.5,169C 478.991,165.66 476.657,163.16 473.5,161.5C 461.81,145.801 450.477,129.801 439.5,113.5 Z"/></g>
<g><path style="opacity:1" fill="#e55638" d="M 386.5,114.5 C 384.235,116.642 381.568,118.309 378.5,119.5C 377.502,127.472 377.169,135.472 377.5,143.5C 377.666,149.176 377.499,154.843 377,160.5C 376.819,157.305 376.319,154.305 375.5,151.5C 375.037,140.405 374.037,129.405 372.5,118.5C 374.167,118.5 375.833,118.5 377.5,118.5C 377.5,117.5 377.5,116.5 377.5,115.5C 377.833,115.5 378.167,115.5 378.5,115.5C 379.15,115.804 379.817,116.137 380.5,116.5C 382.173,114.914 384.173,114.247 386.5,114.5 Z"/></g>
<g><path style="opacity:1" fill="#e55c40" d="M 307.5,111.5 C 313.1,120.08 318.434,128.913 323.5,138C 325.319,138.783 326.652,138.283 327.5,136.5C 324.898,133.387 324.898,130.387 327.5,127.5C 327.409,129.698 328.075,130.031 329.5,128.5C 330.403,135.346 332.07,142.013 334.5,148.5C 333.833,148.5 333.167,148.5 332.5,148.5C 331.358,145.741 330.024,143.074 328.5,140.5C 323.368,143.402 318.035,145.735 312.5,147.5C 312.389,146.883 312.056,146.383 311.5,146C 313.961,144.585 316.294,143.085 318.5,141.5C 315.474,138.974 312.307,136.64 309,134.5C 306.843,132.183 305.343,129.516 304.5,126.5C 309.728,130.706 314.895,135.04 320,139.5C 320.167,139.167 320.333,138.833 320.5,138.5C 315.556,130.274 310.889,121.94 306.5,113.5C 306.328,112.508 306.662,111.842 307.5,111.5 Z"/></g>
<g><path style="opacity:1" fill="#fefcfb" d="M 332.5,148.5 C 336.636,160.909 340.97,173.243 345.5,185.5C 344.209,185.263 343.209,185.596 342.5,186.5C 322.099,194.021 301.433,201.021 280.5,207.5C 286.092,196.649 291.425,185.649 296.5,174.5C 301.246,165.339 306.246,156.339 311.5,147.5C 311.833,147.5 312.167,147.5 312.5,147.5C 318.035,145.735 323.368,143.402 328.5,140.5C 330.024,143.074 331.358,145.741 332.5,148.5 Z"/></g>
<g><path style="opacity:1" fill="#fef9f8" d="M 39.5,173.5 C 43.1401,180.78 46.8068,188.114 50.5,195.5C 42.0902,199.303 33.4235,202.303 24.5,204.5C 23.7974,195.851 23.464,187.185 23.5,178.5C 23.6752,167.962 23.0085,157.628 21.5,147.5C 21.1924,145.076 21.5258,142.743 22.5,140.5C 28.4197,151.339 34.0864,162.339 39.5,173.5 Z"/></g>
<g><path style="opacity:0.431" fill="#da492f" d="M 195.5,162.5 C 193.163,161.164 190.829,159.83 188.5,158.5C 180.269,148.386 172.269,138.053 164.5,127.5C 164.44,126.957 164.107,126.624 163.5,126.5C 162.501,136.812 162.168,147.145 162.5,157.5C 161.732,158.263 161.232,159.263 161,160.5C 160.831,148.993 160.331,137.659 159.5,126.5C 160.045,123.056 162.045,121.889 165.5,123C 176.096,135.756 186.096,148.923 195.5,162.5 Z"/></g>
<g><path style="opacity:1" fill="#e3796d" d="M 164.5,127.5 C 163.502,151.661 163.169,175.994 163.5,200.5C 162.504,186.343 162.171,172.01 162.5,157.5C 162.168,147.145 162.501,136.812 163.5,126.5C 164.107,126.624 164.44,126.957 164.5,127.5 Z"/></g>
<g><path style="opacity:0.939" fill="#d14736" d="M 45.5,176.5 C 43.5168,175.529 41.5168,174.529 39.5,173.5C 34.0864,162.339 28.4197,151.339 22.5,140.5C 21.5258,142.743 21.1924,145.076 21.5,147.5C 21.9507,157.829 22.284,168.162 22.5,178.5C 22.6633,180.857 22.4966,183.19 22,185.5C 21.0656,184.142 20.2323,182.808 19.5,181.5C 18.0728,166.587 17.5728,151.587 18,136.5C 20.6866,133.796 23.1866,133.963 25.5,137C 31.3271,150.687 37.9937,163.854 45.5,176.5 Z"/></g>
<g><path style="opacity:0.973" fill="#d4493b" d="M 311.5,147.5 C 306.246,156.339 301.246,165.339 296.5,174.5C 292.839,176.76 290.339,180.093 289,184.5C 288.329,185.252 287.496,185.586 286.5,185.5C 292.262,174.305 298.262,163.305 304.5,152.5C 306.261,150.078 308.594,148.412 311.5,147.5 Z"/></g>
<g><path style="opacity:1" fill="#f1bcb6" d="M 21.5,147.5 C 23.0085,157.628 23.6752,167.962 23.5,178.5C 23.1667,178.5 22.8333,178.5 22.5,178.5C 22.284,168.162 21.9507,157.829 21.5,147.5 Z"/></g>
<g><path style="opacity:1" fill="#fefdfd" d="M 394.5,216.5 C 397.688,224.059 400.688,231.726 403.5,239.5C 383.524,241.498 363.524,243.165 343.5,244.5C 344.2,240.202 344.533,235.869 344.5,231.5C 346.45,216.662 348.283,201.662 350,186.5C 352.015,185.303 353.849,183.97 355.5,182.5C 361.493,178.831 367.159,174.664 372.5,170C 374.025,168.991 375.692,168.491 377.5,168.5C 382.668,184.671 388.335,200.671 394.5,216.5 Z"/></g>
<g><path style="opacity:0.998" fill="#da594e" d="M 332.5,148.5 C 333.167,148.5 333.833,148.5 334.5,148.5C 339.218,158.983 343.552,169.65 347.5,180.5C 349.545,169.658 351.878,158.992 354.5,148.5C 354.62,150.734 354.287,152.901 353.5,155C 353.836,156.03 354.503,156.53 355.5,156.5C 353.579,164.44 351.912,172.44 350.5,180.5C 349.358,182.374 348.025,184.207 346.5,186C 345.207,186.49 343.873,186.657 342.5,186.5C 343.209,185.596 344.209,185.263 345.5,185.5C 340.97,173.243 336.636,160.909 332.5,148.5 Z"/></g>
<g><path style="opacity:1" fill="#d75850" d="M 377.5,143.5 C 378.329,150.321 378.829,157.321 379,164.5C 384.066,180.346 389.566,196.013 395.5,211.5C 395.784,213.415 395.451,215.081 394.5,216.5C 388.335,200.671 382.668,184.671 377.5,168.5C 375.692,168.491 374.025,168.991 372.5,170C 367.159,174.664 361.493,178.831 355.5,182.5C 355.167,181.833 354.833,181.167 354.5,180.5C 360.741,175.034 367.407,170.034 374.5,165.5C 375.493,160.88 375.827,156.214 375.5,151.5C 376.319,154.305 376.819,157.305 377,160.5C 377.499,154.843 377.666,149.176 377.5,143.5 Z"/></g>
<g><path style="opacity:1" fill="#fefdfd" d="M 472.5,215.5 C 470.166,233.502 467.833,251.502 465.5,269.5C 462.649,286.297 460.315,303.297 458.5,320.5C 458.428,326.601 457.594,332.601 456,338.5C 451.58,330.662 447.414,322.662 443.5,314.5C 435.163,297.826 426.83,281.159 418.5,264.5C 414.724,257.114 411.058,249.614 407.5,242C 420.373,228.959 433.373,216.126 446.5,203.5C 456.468,193.7 466.635,184.033 477,174.5C 476.306,188.205 474.806,201.871 472.5,215.5 Z"/></g>
<g><path style="opacity:0.99" fill="#ce4d49" d="M 159.5,126.5 C 160.331,137.659 160.831,148.993 161,160.5C 161.232,159.263 161.732,158.263 162.5,157.5C 162.171,172.01 162.504,186.343 163.5,200.5C 178.119,195.133 192.452,189.3 206.5,183C 200.618,174.732 194.618,166.566 188.5,158.5C 190.829,159.83 193.163,161.164 195.5,162.5C 200.137,168.142 204.803,173.809 209.5,179.5C 209.5,181.5 209.5,183.5 209.5,185.5C 210.873,185.343 212.207,185.51 213.5,186C 216.469,188.804 218.803,191.97 220.5,195.5C 217.499,192.668 214.333,190.002 211,187.5C 209.295,189.577 208.128,191.91 207.5,194.5C 206.094,194.027 205.427,193.027 205.5,191.5C 206.434,190.432 206.768,189.099 206.5,187.5C 192.635,192.899 178.635,197.899 164.5,202.5C 162.784,202.629 161.117,202.962 159.5,203.5C 159.5,177.833 159.5,152.167 159.5,126.5 Z"/></g>
<g><path style="opacity:1" fill="#fdfafb" d="M 205.5,191.5 C 199.853,205.425 194.187,219.425 188.5,233.5C 185.652,240.845 182.486,248.178 179,255.5C 172.238,238.378 167.405,220.711 164.5,202.5C 178.635,197.899 192.635,192.899 206.5,187.5C 206.768,189.099 206.434,190.432 205.5,191.5 Z"/></g>
<g><path style="opacity:1" fill="#fefcfc" d="M 220.5,195.5 C 230.937,204.766 241.271,214.266 251.5,224C 249.28,226.713 247.28,229.546 245.5,232.5C 240.03,239.483 234.697,246.65 229.5,254C 213.924,261.972 197.59,263.806 180.5,259.5C 184.389,251.724 187.722,243.724 190.5,235.5C 196.449,221.938 202.115,208.271 207.5,194.5C 208.128,191.91 209.295,189.577 211,187.5C 214.333,190.002 217.499,192.668 220.5,195.5 Z"/></g>
<g><path style="opacity:1" fill="#fefbfb" d="M 342.5,227.5 C 341.936,232.909 340.936,238.242 339.5,243.5C 320.304,233.404 301.304,223.071 282.5,212.5C 281.662,212.158 281.328,211.492 281.5,210.5C 303.419,203.971 325.085,196.638 346.5,188.5C 344.969,201.477 343.636,214.477 342.5,227.5 Z"/></g>
<g><path style="opacity:1" fill="#cc514f" d="M 473.5,161.5 C 476.657,163.16 478.991,165.66 480.5,169C 479.182,172.269 479.182,175.435 480.5,178.5C 480.286,180.144 480.62,181.644 481.5,183C 480.179,187.069 479.179,191.236 478.5,195.5C 478.709,196.086 479.043,196.586 479.5,197C 477.845,199.247 477.512,201.58 478.5,204C 477.352,207.719 476.686,211.552 476.5,215.5C 475.25,215.423 474.417,214.756 474,213.5C 473.722,214.416 473.222,215.082 472.5,215.5C 474.806,201.871 476.306,188.205 477,174.5C 466.635,184.033 456.468,193.7 446.5,203.5C 446.158,202.662 445.492,202.328 444.5,202.5C 454.828,191.339 465.661,180.672 477,170.5C 477.667,169.5 477.667,168.5 477,167.5C 475.558,165.609 474.391,163.609 473.5,161.5 Z"/></g>
<g><path style="opacity:1" fill="#fefcfd" d="M 97.5,233.5 C 104.17,239.267 111.004,244.934 118,250.5C 118.315,251.908 117.982,253.241 117,254.5C 115.624,255.705 114.458,257.038 113.5,258.5C 103.448,269.575 93.6149,280.908 84,292.5C 71.3591,273.376 58.1924,254.709 44.5,236.5C 38.8371,226.648 32.5037,217.148 25.5,208C 34.3722,204.958 43.2055,201.791 52,198.5C 67.0889,210.291 82.2556,221.958 97.5,233.5 Z"/></g>
<g><path style="opacity:0.947" fill="#be444a" d="M 39.5,173.5 C 41.5168,174.529 43.5168,175.529 45.5,176.5C 48.0701,182.808 51.0701,188.975 54.5,195C 73.93,208.936 92.5966,223.77 110.5,239.5C 107.561,239.082 105.228,237.582 103.5,235C 101.482,234.495 99.4817,233.995 97.5,233.5C 82.2556,221.958 67.0889,210.291 52,198.5C 43.2055,201.791 34.3722,204.958 25.5,208C 32.5037,217.148 38.8371,226.648 44.5,236.5C 44.8333,238.5 45.1667,240.5 45.5,242.5C 37.4472,232.607 29.9472,222.274 23,211.5C 21.185,206.326 20.0184,200.993 19.5,195.5C 19.8866,190.907 19.8866,186.24 19.5,181.5C 20.2323,182.808 21.0656,184.142 22,185.5C 22.4966,183.19 22.6633,180.857 22.5,178.5C 22.8333,178.5 23.1667,178.5 23.5,178.5C 23.464,187.185 23.7974,195.851 24.5,204.5C 33.4235,202.303 42.0902,199.303 50.5,195.5C 46.8068,188.114 43.1401,180.78 39.5,173.5 Z"/></g>
<g><path style="opacity:1" fill="#ce5759" d="M 350.5,180.5 C 350.369,181.239 350.536,181.906 351,182.5C 351.816,181.177 352.983,180.511 354.5,180.5C 354.833,181.167 355.167,181.833 355.5,182.5C 353.849,183.97 352.015,185.303 350,186.5C 348.283,201.662 346.45,216.662 344.5,231.5C 344.771,229.62 344.104,228.287 342.5,227.5C 343.636,214.477 344.969,201.477 346.5,188.5C 325.085,196.638 303.419,203.971 281.5,210.5C 280.909,209.849 280.243,209.182 279.5,208.5C 279.624,207.893 279.957,207.56 280.5,207.5C 301.433,201.021 322.099,194.021 342.5,186.5C 343.873,186.657 345.207,186.49 346.5,186C 348.025,184.207 349.358,182.374 350.5,180.5 Z"/></g>
<g><path style="opacity:1" fill="#c1444b" d="M 296.5,174.5 C 291.425,185.649 286.092,196.649 280.5,207.5C 279.957,207.56 279.624,207.893 279.5,208.5C 280.243,209.182 280.909,209.849 281.5,210.5C 281.328,211.492 281.662,212.158 282.5,212.5C 281.833,213.167 281.167,213.833 280.5,214.5C 279.833,214.5 279.167,214.5 278.5,214.5C 277.515,218.634 277.182,222.968 277.5,227.5C 276.834,222.983 276.167,218.317 275.5,213.5C 274.893,213.624 274.56,213.957 274.5,214.5C 268.829,217.336 263.162,220.169 257.5,223C 253.584,226.41 250.251,230.243 247.5,234.5C 246.167,234.5 245.5,233.833 245.5,232.5C 247.28,229.546 249.28,226.713 251.5,224C 241.271,214.266 230.937,204.766 220.5,195.5C 218.803,191.97 216.469,188.804 213.5,186C 212.207,185.51 210.873,185.343 209.5,185.5C 209.5,183.5 209.5,181.5 209.5,179.5C 223.804,193.798 238.804,207.464 254.5,220.5C 261.359,216.069 268.693,212.736 276.5,210.5C 276.34,208.801 276.506,207.134 277,205.5C 280.467,198.902 283.634,192.235 286.5,185.5C 287.496,185.586 288.329,185.252 289,184.5C 290.339,180.093 292.839,176.76 296.5,174.5 Z"/></g>
<g><path style="opacity:1" fill="#c7555e" d="M 205.5,191.5 C 205.427,193.027 206.094,194.027 207.5,194.5C 202.115,208.271 196.449,221.938 190.5,235.5C 189.5,235.167 188.833,234.5 188.5,233.5C 194.187,219.425 199.853,205.425 205.5,191.5 Z"/></g>
<g><path style="opacity:1" fill="#fefcfd" d="M 280.5,215.5 C 299.529,225.036 318.196,235.202 336.5,246C 318.901,249.6 301.234,252.766 283.5,255.5C 282.167,255.5 280.833,255.5 279.5,255.5C 279.171,241.99 279.504,228.656 280.5,215.5 Z"/></g>
<g><path style="opacity:0.999" fill="#be5265" d="M 444.5,202.5 C 445.492,202.328 446.158,202.662 446.5,203.5C 433.373,216.126 420.373,228.959 407.5,242C 411.058,249.614 414.724,257.114 418.5,264.5C 418.167,265.5 417.5,266.167 416.5,266.5C 412.028,259.223 408.361,251.556 405.5,243.5C 385.151,244.592 364.818,245.926 344.5,247.5C 347.032,252.717 350.032,257.717 353.5,262.5C 352.167,262.5 351.5,263.167 351.5,264.5C 348.324,259.501 344.658,254.834 340.5,250.5C 335.145,256.187 329.812,261.854 324.5,267.5C 323.791,266.596 322.791,266.263 321.5,266.5C 326.663,261.17 331.663,255.67 336.5,250C 320.882,252.492 305.215,254.992 289.5,257.5C 287.833,257.5 286.167,257.5 284.5,257.5C 284.5,256.833 284.167,256.5 283.5,256.5C 283.5,256.167 283.5,255.833 283.5,255.5C 301.234,252.766 318.901,249.6 336.5,246C 318.196,235.202 299.529,225.036 280.5,215.5C 280.5,215.167 280.5,214.833 280.5,214.5C 281.167,213.833 281.833,213.167 282.5,212.5C 301.304,223.071 320.304,233.404 339.5,243.5C 340.936,238.242 341.936,232.909 342.5,227.5C 344.104,228.287 344.771,229.62 344.5,231.5C 344.533,235.869 344.2,240.202 343.5,244.5C 363.524,243.165 383.524,241.498 403.5,239.5C 400.688,231.726 397.688,224.059 394.5,216.5C 395.451,215.081 395.784,213.415 395.5,211.5C 399.404,219.868 402.737,228.535 405.5,237.5C 406.552,237.649 407.552,237.483 408.5,237C 420.066,224.932 432.066,213.432 444.5,202.5 Z"/></g>
<g><path style="opacity:1" fill="#eecfd5" d="M 278.5,214.5 C 279.167,214.5 279.833,214.5 280.5,214.5C 280.5,214.833 280.5,215.167 280.5,215.5C 279.504,228.656 279.171,241.99 279.5,255.5C 280.833,255.5 282.167,255.5 283.5,255.5C 283.5,255.833 283.5,256.167 283.5,256.5C 282.167,256.5 280.833,256.5 279.5,256.5C 278.504,242.677 278.171,228.677 278.5,214.5 Z"/></g>
<g><path style="opacity:1" fill="#fefcfd" d="M 416.5,266.5 C 424.595,283.688 432.928,300.688 441.5,317.5C 445.454,325.408 449.454,333.408 453.5,341.5C 453.167,341.833 452.833,342.167 452.5,342.5C 434.67,337.63 417.004,332.63 399.5,327.5C 384.419,305.677 369.086,284.011 353.5,262.5C 350.032,257.717 347.032,252.717 344.5,247.5C 364.818,245.926 385.151,244.592 405.5,243.5C 408.361,251.556 412.028,259.223 416.5,266.5 Z"/></g>
<g><path style="opacity:1" fill="#c86a7c" d="M 278.5,214.5 C 278.171,228.677 278.504,242.677 279.5,256.5C 279.44,257.043 279.107,257.376 278.5,257.5C 277.501,247.522 277.168,237.522 277.5,227.5C 277.182,222.968 277.515,218.634 278.5,214.5 Z"/></g>
<g><path style="opacity:1" fill="#fdfbfc" d="M 321.5,266.5 C 314.838,273.329 308.338,280.329 302,287.5C 295.023,278.356 287.857,269.356 280.5,260.5C 283.656,259.616 286.656,258.616 289.5,257.5C 305.215,254.992 320.882,252.492 336.5,250C 331.663,255.67 326.663,261.17 321.5,266.5 Z"/></g>
<g><path style="opacity:1" fill="#fefcfd" d="M 351.5,264.5 C 366.478,286.136 381.811,307.469 397.5,328.5C 388.462,334.866 378.795,340.533 368.5,345.5C 351.48,330.811 334.48,316.144 317.5,301.5C 313.187,297.522 308.854,293.522 304.5,289.5C 311.558,282.446 318.225,275.112 324.5,267.5C 329.812,261.854 335.145,256.187 340.5,250.5C 344.658,254.834 348.324,259.501 351.5,264.5 Z"/></g>
<g><path style="opacity:1" fill="#fdfcfc" d="M 176.5,263.5 C 174.186,272.424 172.019,281.424 170,290.5C 166.612,295.048 163.445,299.714 160.5,304.5C 155.59,311.584 150.09,318.251 144,324.5C 143.667,324.167 143.333,323.833 143,323.5C 137.013,302.396 131.18,281.396 125.5,260.5C 125.326,258.139 124.993,255.806 124.5,253.5C 136.091,255.765 147.757,257.598 159.5,259C 165.489,259.822 171.156,261.322 176.5,263.5 Z"/></g>
<g><path style="opacity:1" fill="#fdfbfb" d="M 125.5,269.5 C 130.171,287.851 134.671,306.185 139,324.5C 122.028,315.017 105.194,305.35 88.5,295.5C 87.6971,294.577 87.5304,293.577 88,292.5C 97.4455,282.232 106.279,271.566 114.5,260.5C 116.797,258.706 118.963,256.706 121,254.5C 122.405,259.548 123.905,264.548 125.5,269.5 Z"/></g>
<g><path style="opacity:1" fill="#fdfafb" d="M 250.5,258.5 C 251.263,259.268 252.263,259.768 253.5,260C 248.333,264.5 243.167,269 238,273.5C 237.639,276.525 237.139,279.525 236.5,282.5C 236.608,283.442 236.941,284.275 237.5,285C 239.762,285.642 241.929,286.475 244,287.5C 243.85,289.506 243.35,291.506 242.5,293.5C 238.202,294.2 233.869,294.533 229.5,294.5C 224.167,294.5 218.833,294.5 213.5,294.5C 213.164,285.802 212.497,277.135 211.5,268.5C 211.286,266.856 211.62,265.356 212.5,264C 224.406,257.375 237.072,255.542 250.5,258.5 Z"/></g>
<g><path style="opacity:0.985" fill="#a43b51" d="M 476.5,215.5 C 473.989,236.958 470.989,258.958 467.5,281.5C 466.883,281.389 466.383,281.056 466,280.5C 465.501,276.848 465.335,273.182 465.5,269.5C 467.833,251.502 470.166,233.502 472.5,215.5C 473.222,215.082 473.722,214.416 474,213.5C 474.417,214.756 475.25,215.423 476.5,215.5 Z"/></g>
<g><path style="opacity:1" fill="#b2455e" d="M 164.5,202.5 C 167.405,220.711 172.238,238.378 179,255.5C 182.486,248.178 185.652,240.845 188.5,233.5C 188.833,234.5 189.5,235.167 190.5,235.5C 187.722,243.724 184.389,251.724 180.5,259.5C 197.59,263.806 213.924,261.972 229.5,254C 234.697,246.65 240.03,239.483 245.5,232.5C 245.5,233.833 246.167,234.5 247.5,234.5C 242.664,240.842 237.998,247.342 233.5,254C 242.109,255.493 250.775,256.326 259.5,256.5C 264.64,257.488 269.974,257.821 275.5,257.5C 275.829,242.99 275.496,228.657 274.5,214.5C 274.56,213.957 274.893,213.624 275.5,213.5C 276.167,218.317 276.834,222.983 277.5,227.5C 277.168,237.522 277.501,247.522 278.5,257.5C 279.107,257.376 279.44,257.043 279.5,256.5C 280.833,256.5 282.167,256.5 283.5,256.5C 284.167,256.5 284.5,256.833 284.5,257.5C 283.081,258.451 281.415,258.784 279.5,258.5C 279.768,260.099 279.434,261.432 278.5,262.5C 277.811,261.226 276.977,261.226 276,262.5C 275.768,261.263 275.268,260.263 274.5,259.5C 268.974,259.179 263.64,259.512 258.5,260.5C 257.833,260.833 257.167,261.167 256.5,261.5C 254.952,261.179 254.285,260.179 254.5,258.5C 253.167,258.5 251.833,258.5 250.5,258.5C 237.072,255.542 224.406,257.375 212.5,264C 211.62,265.356 211.286,266.856 211.5,268.5C 210.022,267.552 209.022,266.219 208.5,264.5C 198.808,264.139 189.141,263.472 179.5,262.5C 179.737,263.791 179.404,264.791 178.5,265.5C 178.167,264.5 177.5,263.833 176.5,263.5C 171.156,261.322 165.489,259.822 159.5,259C 147.757,257.598 136.091,255.765 124.5,253.5C 124.993,255.806 125.326,258.139 125.5,260.5C 126.112,263.696 126.112,266.696 125.5,269.5C 123.905,264.548 122.405,259.548 121,254.5C 118.963,256.706 116.797,258.706 114.5,260.5C 113.662,260.158 113.328,259.492 113.5,258.5C 114.458,257.038 115.624,255.705 117,254.5C 117.982,253.241 118.315,251.908 118,250.5C 111.004,244.934 104.17,239.267 97.5,233.5C 99.4817,233.995 101.482,234.495 103.5,235C 105.228,237.582 107.561,239.082 110.5,239.5C 114.727,241.785 118.393,244.785 121.5,248.5C 139.911,251.864 157.911,254.864 175.5,257.5C 169.607,239.982 164.274,221.982 159.5,203.5C 161.117,202.962 162.784,202.629 164.5,202.5 Z"/></g>
<g><path style="opacity:1" fill="#e6bdc6" d="M 274.5,214.5 C 275.496,228.657 275.829,242.99 275.5,257.5C 269.974,257.821 264.64,257.488 259.5,256.5C 264.5,256.5 269.5,256.5 274.5,256.5C 274.5,242.5 274.5,228.5 274.5,214.5 Z"/></g>
<g><path style="opacity:1" fill="#fdfbfb" d="M 274.5,214.5 C 274.5,228.5 274.5,242.5 274.5,256.5C 269.5,256.5 264.5,256.5 259.5,256.5C 250.775,256.326 242.109,255.493 233.5,254C 237.998,247.342 242.664,240.842 247.5,234.5C 250.251,230.243 253.584,226.41 257.5,223C 263.162,220.169 268.829,217.336 274.5,214.5 Z"/></g>
<g><path style="opacity:1" fill="#fcf9fa" d="M 208.5,264.5 C 208.873,274.854 209.539,285.187 210.5,295.5C 197.87,294.306 185.536,291.973 173.5,288.5C 175.643,280.929 177.31,273.262 178.5,265.5C 179.404,264.791 179.737,263.791 179.5,262.5C 189.141,263.472 198.808,264.139 208.5,264.5 Z"/></g>
<g><path style="opacity:0.955" fill="#a63d5f" d="M 44.5,236.5 C 58.1924,254.709 71.3591,273.376 84,292.5C 93.6149,280.908 103.448,269.575 113.5,258.5C 113.328,259.492 113.662,260.158 114.5,260.5C 106.279,271.566 97.4455,282.232 88,292.5C 87.5304,293.577 87.6971,294.577 88.5,295.5C 87.1266,295.343 85.7932,295.51 84.5,296C 87.1725,297.676 89.8392,299.342 92.5,301C 91.944,301.383 91.6107,301.883 91.5,302.5C 89.05,301.223 86.7167,299.723 84.5,298C 77.5055,290.671 71.6722,282.504 67,273.5C 58.8273,263.806 51.6606,253.473 45.5,242.5C 45.1667,240.5 44.8333,238.5 44.5,236.5 Z"/></g>
<g><path style="opacity:0.999" fill="#ac4a6e" d="M 284.5,257.5 C 286.167,257.5 287.833,257.5 289.5,257.5C 286.656,258.616 283.656,259.616 280.5,260.5C 287.857,269.356 295.023,278.356 302,287.5C 308.338,280.329 314.838,273.329 321.5,266.5C 322.791,266.263 323.791,266.596 324.5,267.5C 318.225,275.112 311.558,282.446 304.5,289.5C 308.854,293.522 313.187,297.522 317.5,301.5C 316.167,301.5 315.5,302.167 315.5,303.5C 311.479,299.481 307.146,295.814 302.5,292.5C 300.115,295.212 297.782,297.878 295.5,300.5C 294.798,299.884 293.798,299.884 292.5,300.5C 293.912,298.02 295.578,295.687 297.5,293.5C 288.154,292.621 278.821,292.954 269.5,294.5C 267.545,294.724 265.879,295.391 264.5,296.5C 264.631,295.761 264.464,295.094 264,294.5C 262.556,296.155 260.722,296.822 258.5,296.5C 259.808,295.768 261.142,294.934 262.5,294C 259.428,292.142 256.095,290.976 252.5,290.5C 248.891,287.647 246.557,288.647 245.5,293.5C 244.348,294.625 243.348,294.625 242.5,293.5C 243.35,291.506 243.85,289.506 244,287.5C 241.929,286.475 239.762,285.642 237.5,285C 236.941,284.275 236.608,283.442 236.5,282.5C 237.139,279.525 237.639,276.525 238,273.5C 243.167,269 248.333,264.5 253.5,260C 252.263,259.768 251.263,259.268 250.5,258.5C 251.833,258.5 253.167,258.5 254.5,258.5C 254.285,260.179 254.952,261.179 256.5,261.5C 251.312,266.033 246.145,270.699 241,275.5C 240.333,277.833 240.333,280.167 241,282.5C 248.575,285.359 256.242,288.025 264,290.5C 268.433,282.041 271.599,273.041 273.5,263.5C 274.434,262.432 274.768,261.099 274.5,259.5C 275.268,260.263 275.768,261.263 276,262.5C 276.977,261.226 277.811,261.226 278.5,262.5C 279.434,261.432 279.768,260.099 279.5,258.5C 281.415,258.784 283.081,258.451 284.5,257.5 Z"/></g>
<g><path style="opacity:1" fill="#fcf8fa" d="M 278.5,262.5 C 285.143,270.814 291.81,279.148 298.5,287.5C 289.25,289.251 279.916,290.585 270.5,291.5C 269.833,291.167 269.167,290.833 268.5,290.5C 271.269,280.852 274.603,271.518 278.5,262.5 Z"/></g>
<g><path style="opacity:1" fill="#fdfbfc" d="M 258.5,260.5 C 263.5,260.5 268.5,260.5 273.5,260.5C 273.5,261.5 273.5,262.5 273.5,263.5C 271.599,273.041 268.433,282.041 264,290.5C 256.242,288.025 248.575,285.359 241,282.5C 240.333,280.167 240.333,277.833 241,275.5C 246.145,270.699 251.312,266.033 256.5,261.5C 257.167,261.167 257.833,260.833 258.5,260.5 Z"/></g>
<g><path style="opacity:1" fill="#ddadbb" d="M 258.5,260.5 C 263.64,259.512 268.974,259.179 274.5,259.5C 274.768,261.099 274.434,262.432 273.5,263.5C 273.5,262.5 273.5,261.5 273.5,260.5C 268.5,260.5 263.5,260.5 258.5,260.5 Z"/></g>
<g><path style="opacity:1" fill="#ac4f73" d="M 418.5,264.5 C 426.83,281.159 435.163,297.826 443.5,314.5C 442.883,314.389 442.383,314.056 442,313.5C 441.51,314.793 441.343,316.127 441.5,317.5C 432.928,300.688 424.595,283.688 416.5,266.5C 417.5,266.167 418.167,265.5 418.5,264.5 Z"/></g>
<g><path style="opacity:1" fill="#f4e5eb" d="M 252.5,290.5 C 251.504,290.414 250.671,290.748 250,291.5C 249.027,293.392 248.36,295.392 248,297.5C 246.519,296.529 245.685,295.196 245.5,293.5C 246.557,288.647 248.891,287.647 252.5,290.5 Z"/></g>
<g><path style="opacity:1" fill="#faf3f6" d="M 252.5,290.5 C 256.095,290.976 259.428,292.142 262.5,294C 261.142,294.934 259.808,295.768 258.5,296.5C 255.84,297.347 253.174,297.847 250.5,298C 253.446,296.047 254.113,293.547 252.5,290.5 Z"/></g>
<g><path style="opacity:1" fill="#fcfafb" d="M 292.5,300.5 C 283.342,312.804 274.176,325.137 265,337.5C 264.776,328.787 264.276,320.12 263.5,311.5C 263.179,306.305 263.513,301.305 264.5,296.5C 265.879,295.391 267.545,294.724 269.5,294.5C 278.821,292.954 288.154,292.621 297.5,293.5C 295.578,295.687 293.912,298.02 292.5,300.5 Z"/></g>
<g><path style="opacity:1" fill="#fefdfd" d="M 315.5,303.5 C 331.917,317.473 348.084,331.807 364,346.5C 363.942,348.435 363.109,350.102 361.5,351.5C 346.876,362.124 332.543,373.124 318.5,384.5C 316.856,385.366 315.189,385.866 313.5,386C 297.27,371.724 281.27,357.224 265.5,342.5C 275.913,328.76 285.913,314.76 295.5,300.5C 297.782,297.878 300.115,295.212 302.5,292.5C 307.146,295.814 311.479,299.481 315.5,303.5 Z"/></g>
<g><path style="opacity:1" fill="#a54069" d="M 176.5,263.5 C 177.5,263.833 178.167,264.5 178.5,265.5C 177.31,273.262 175.643,280.929 173.5,288.5C 185.536,291.973 197.87,294.306 210.5,295.5C 209.539,285.187 208.873,274.854 208.5,264.5C 209.022,266.219 210.022,267.552 211.5,268.5C 212.497,277.135 213.164,285.802 213.5,294.5C 217.021,295.166 220.687,295.833 224.5,296.5C 221.358,297.167 218.358,297.834 215.5,298.5C 214.5,299.167 213.5,299.833 212.5,300.5C 211.942,299.21 210.942,298.377 209.5,298C 197.633,296.346 185.8,294.512 174,292.5C 172.395,293.101 171.062,294.101 170,295.5C 167.637,299.345 165.137,303.011 162.5,306.5C 162.167,305.5 161.5,304.833 160.5,304.5C 163.445,299.714 166.612,295.048 170,290.5C 172.019,281.424 174.186,272.424 176.5,263.5 Z"/></g>
<g><path style="opacity:0.859" fill="#a5496f" d="M 465.5,269.5 C 465.335,273.182 465.501,276.848 466,280.5C 466.383,281.056 466.883,281.389 467.5,281.5C 466.827,289.547 465.827,297.547 464.5,305.5C 463.792,307.378 462.626,309.045 461,310.5C 460.689,314.09 459.856,317.423 458.5,320.5C 460.315,303.297 462.649,286.297 465.5,269.5 Z"/></g>
<g><path style="opacity:1" fill="#fdfbfc" d="M 259.5,299.5 C 260.605,312.656 261.272,325.99 261.5,339.5C 257.7,337.766 254.034,335.766 250.5,333.5C 242.473,328.975 234.473,324.141 226.5,319C 233.5,314 240.5,309 247.5,304C 251.342,301.998 255.342,300.498 259.5,299.5 Z"/></g>
<g><path style="opacity:1" fill="#a44670" d="M 353.5,262.5 C 369.086,284.011 384.419,305.677 399.5,327.5C 398.075,325.969 397.409,326.302 397.5,328.5C 381.811,307.469 366.478,286.136 351.5,264.5C 351.5,263.167 352.167,262.5 353.5,262.5 Z"/></g>
<g><path style="opacity:1" fill="#fdfcfd" d="M 204.5,333.5 C 196.374,339.787 188.374,346.287 180.5,353C 171.505,352.601 162.505,352.267 153.5,352C 151.65,354.018 149.65,355.851 147.5,357.5C 146.833,353.353 146.166,349.353 145.5,345.5C 145.608,340.13 145.275,334.797 144.5,329.5C 168.852,326.865 193.186,324.365 217.5,322C 213.094,325.851 208.761,329.684 204.5,333.5 Z"/></g>
<g><path style="opacity:1" fill="#fdfcfd" d="M 246.5,334.5 C 252.139,337.989 257.805,341.489 263.5,345C 279.017,359.352 294.684,373.518 310.5,387.5C 309.398,388.176 308.398,388.842 307.5,389.5C 299.427,391.691 291.427,394.191 283.5,397C 274.247,398.87 264.914,400.036 255.5,400.5C 246.228,391.73 237.062,382.73 228,373.5C 227.295,362.001 226.462,350.668 225.5,339.5C 225.5,334.167 225.5,328.833 225.5,323.5C 232.588,326.879 239.588,330.545 246.5,334.5 Z"/></g>
<g><path style="opacity:1" fill="#fdfcfd" d="M 220.5,323.5 C 221.167,325.5 221.833,327.5 222.5,329.5C 222.174,340.712 222.841,351.712 224.5,362.5C 224.5,366.167 224.5,369.833 224.5,373.5C 212.791,376.958 201.124,380.625 189.5,384.5C 188.353,384.182 187.519,383.516 187,382.5C 186.174,379.207 185.674,375.874 185.5,372.5C 185.58,369.219 184.913,366.219 183.5,363.5C 183.25,360.786 183.083,358.119 183,355.5C 191.333,348.664 199.5,341.664 207.5,334.5C 212.152,331.179 216.485,327.513 220.5,323.5 Z"/></g>
<g><path style="opacity:0.988" fill="#9a3b6d" d="M 125.5,260.5 C 131.18,281.396 137.013,302.396 143,323.5C 143.333,323.833 143.667,324.167 144,324.5C 150.09,318.251 155.59,311.584 160.5,304.5C 161.5,304.833 162.167,305.5 162.5,306.5C 157.905,313.102 152.905,319.435 147.5,325.5C 148.333,325.833 149.167,326.167 150,326.5C 173.44,323.216 196.94,320.549 220.5,318.5C 218.386,312.271 215.719,306.271 212.5,300.5C 213.5,299.833 214.5,299.167 215.5,298.5C 217.962,304.757 220.962,310.757 224.5,316.5C 232.226,311.644 239.559,306.311 246.5,300.5C 245.812,299.145 244.812,298.145 243.5,297.5C 238.015,296.673 232.348,296.173 226.5,296C 227.737,295.768 228.737,295.268 229.5,294.5C 233.869,294.533 238.202,294.2 242.5,293.5C 243.348,294.625 244.348,294.625 245.5,293.5C 245.685,295.196 246.519,296.529 248,297.5C 248.36,295.392 249.027,293.392 250,291.5C 250.671,290.748 251.504,290.414 252.5,290.5C 254.113,293.547 253.446,296.047 250.5,298C 253.174,297.847 255.84,297.347 258.5,296.5C 260.722,296.822 262.556,296.155 264,294.5C 264.464,295.094 264.631,295.761 264.5,296.5C 263.513,301.305 263.179,306.305 263.5,311.5C 262.833,311.167 262.167,310.833 261.5,310.5C 261.824,306.445 261.491,302.445 260.5,298.5C 259.893,298.624 259.56,298.957 259.5,299.5C 255.342,300.498 251.342,301.998 247.5,304C 240.5,309 233.5,314 226.5,319C 234.473,324.141 242.473,328.975 250.5,333.5C 248.901,333.232 247.568,333.566 246.5,334.5C 239.588,330.545 232.588,326.879 225.5,323.5C 225.5,328.833 225.5,334.167 225.5,339.5C 225.784,341.415 225.451,343.081 224.5,344.5C 223.833,339.5 223.167,334.5 222.5,329.5C 222.808,327.076 222.474,324.743 221.5,322.5C 220.893,322.624 220.56,322.957 220.5,323.5C 216.485,327.513 212.152,331.179 207.5,334.5C 206.791,333.596 205.791,333.263 204.5,333.5C 208.761,329.684 213.094,325.851 217.5,322C 193.186,324.365 168.852,326.865 144.5,329.5C 145.275,334.797 145.608,340.13 145.5,345.5C 144.749,348.246 143.749,350.913 142.5,353.5C 141.776,345.144 140.776,336.811 139.5,328.5C 123.473,319.821 107.473,311.154 91.5,302.5C 91.6107,301.883 91.944,301.383 92.5,301C 89.8392,299.342 87.1725,297.676 84.5,296C 85.7932,295.51 87.1266,295.343 88.5,295.5C 105.194,305.35 122.028,315.017 139,324.5C 134.671,306.185 130.171,287.851 125.5,269.5C 126.112,266.696 126.112,263.696 125.5,260.5 Z"/></g>
<g><path style="opacity:1" fill="#c996b3" d="M 220.5,323.5 C 220.56,322.957 220.893,322.624 221.5,322.5C 222.474,324.743 222.808,327.076 222.5,329.5C 221.833,327.5 221.167,325.5 220.5,323.5 Z"/></g>
<g><path style="opacity:1" fill="#fcf9fb" d="M 243.5,297.5 C 244.812,298.145 245.812,299.145 246.5,300.5C 239.559,306.311 232.226,311.644 224.5,316.5C 220.962,310.757 217.962,304.757 215.5,298.5C 224.823,297.932 234.156,297.599 243.5,297.5 Z"/></g>
<g><path style="opacity:1" fill="#c3819c" d="M 213.5,294.5 C 218.833,294.5 224.167,294.5 229.5,294.5C 228.737,295.268 227.737,295.768 226.5,296C 232.348,296.173 238.015,296.673 243.5,297.5C 234.156,297.599 224.823,297.932 215.5,298.5C 218.358,297.834 221.358,297.167 224.5,296.5C 220.687,295.833 217.021,295.166 213.5,294.5 Z"/></g>
<g><path style="opacity:1" fill="#fdfbfc" d="M 212.5,300.5 C 215.719,306.271 218.386,312.271 220.5,318.5C 196.94,320.549 173.44,323.216 150,326.5C 149.167,326.167 148.333,325.833 147.5,325.5C 152.905,319.435 157.905,313.102 162.5,306.5C 165.137,303.011 167.637,299.345 170,295.5C 171.062,294.101 172.395,293.101 174,292.5C 185.8,294.512 197.633,296.346 209.5,298C 210.942,298.377 211.942,299.21 212.5,300.5 Z"/></g>
<g><path style="opacity:0.999" fill="#963c73" d="M 295.5,300.5 C 285.913,314.76 275.913,328.76 265.5,342.5C 281.27,357.224 297.27,371.724 313.5,386C 315.189,385.866 316.856,385.366 318.5,384.5C 317.766,385.708 317.433,387.041 317.5,388.5C 314.14,388.616 310.807,388.949 307.5,389.5C 308.398,388.842 309.398,388.176 310.5,387.5C 294.684,373.518 279.017,359.352 263.5,345C 257.805,341.489 252.139,337.989 246.5,334.5C 247.568,333.566 248.901,333.232 250.5,333.5C 254.034,335.766 257.7,337.766 261.5,339.5C 262.382,330 262.382,320.333 261.5,310.5C 262.167,310.833 262.833,311.167 263.5,311.5C 264.276,320.12 264.776,328.787 265,337.5C 274.176,325.137 283.342,312.804 292.5,300.5C 293.798,299.884 294.798,299.884 295.5,300.5 Z"/></g>
<g><path style="opacity:0.959" fill="#90356a" d="M 317.5,301.5 C 334.48,316.144 351.48,330.811 368.5,345.5C 378.795,340.533 388.462,334.866 397.5,328.5C 397.409,326.302 398.075,325.969 399.5,327.5C 417.004,332.63 434.67,337.63 452.5,342.5C 452.833,342.167 453.167,341.833 453.5,341.5C 449.454,333.408 445.454,325.408 441.5,317.5C 441.343,316.127 441.51,314.793 442,313.5C 442.383,314.056 442.883,314.389 443.5,314.5C 447.414,322.662 451.58,330.662 456,338.5C 457.594,332.601 458.428,326.601 458.5,320.5C 459.856,317.423 460.689,314.09 461,310.5C 462.626,309.045 463.792,307.378 464.5,305.5C 462.883,317.019 461.383,328.352 460,339.5C 458.275,341.8 456.442,343.966 454.5,346C 436.769,342.543 418.935,338.043 401,332.5C 390.311,337.948 379.811,343.615 369.5,349.5C 366.779,349.963 364.112,350.629 361.5,351.5C 363.109,350.102 363.942,348.435 364,346.5C 348.084,331.807 331.917,317.473 315.5,303.5C 315.5,302.167 316.167,301.5 317.5,301.5 Z"/></g>
<g><path style="opacity:1" fill="#b7759b" d="M 259.5,299.5 C 259.56,298.957 259.893,298.624 260.5,298.5C 261.491,302.445 261.824,306.445 261.5,310.5C 262.382,320.333 262.382,330 261.5,339.5C 261.272,325.99 260.605,312.656 259.5,299.5 Z"/></g>
<g><path style="opacity:1" fill="#954079" d="M 204.5,333.5 C 205.791,333.263 206.791,333.596 207.5,334.5C 199.5,341.664 191.333,348.664 183,355.5C 183.083,358.119 183.25,360.786 183.5,363.5C 182.778,362.449 181.778,361.782 180.5,361.5C 179.962,359.883 179.629,358.216 179.5,356.5C 171.442,356.084 163.442,355.584 155.5,355C 152.705,356.793 150.205,358.96 148,361.5C 147.503,364.146 147.336,366.813 147.5,369.5C 146.681,366.695 146.181,363.695 146,360.5C 144.25,358.743 143.084,356.743 142.5,354.5C 142.5,354.167 142.5,353.833 142.5,353.5C 143.749,350.913 144.749,348.246 145.5,345.5C 146.166,349.353 146.833,353.353 147.5,357.5C 149.65,355.851 151.65,354.018 153.5,352C 162.505,352.267 171.505,352.601 180.5,353C 188.374,346.287 196.374,339.787 204.5,333.5 Z"/></g>
<g><path style="opacity:1" fill="#c18cb0" d="M 222.5,329.5 C 223.167,334.5 223.833,339.5 224.5,344.5C 224.5,350.5 224.5,356.5 224.5,362.5C 222.841,351.712 222.174,340.712 222.5,329.5 Z"/></g>
<g><path style="opacity:1" fill="#893578" d="M 225.5,339.5 C 226.462,350.668 227.295,362.001 228,373.5C 237.062,382.73 246.228,391.73 255.5,400.5C 254.504,400.586 253.671,400.252 253,399.5C 252.764,401.119 251.931,402.119 250.5,402.5C 250.611,401.883 250.944,401.383 251.5,401C 243.5,393 235.5,385 227.5,377C 226.667,376.833 225.833,376.667 225,376.5C 212.908,380.476 200.742,384.142 188.5,387.5C 184.954,392.543 181.621,397.709 178.5,403C 180.043,405.042 181.376,407.208 182.5,409.5C 181.029,407.969 179.196,406.969 177,406.5C 175.289,406.439 173.956,407.106 173,408.5C 172.617,407.944 172.117,407.611 171.5,407.5C 175.656,401.195 179.823,394.862 184,388.5C 183.945,379.381 182.778,370.381 180.5,361.5C 181.778,361.782 182.778,362.449 183.5,363.5C 183.42,366.781 184.087,369.781 185.5,372.5C 185.674,375.874 186.174,379.207 187,382.5C 187.519,383.516 188.353,384.182 189.5,384.5C 201.124,380.625 212.791,376.958 224.5,373.5C 224.5,369.833 224.5,366.167 224.5,362.5C 224.5,356.5 224.5,350.5 224.5,344.5C 225.451,343.081 225.784,341.415 225.5,339.5 Z"/></g>
<g><path style="opacity:0.922" fill="#79246b" d="M 369.5,349.5 C 352.543,362.779 335.543,376.112 318.5,389.5C 315.548,390.068 312.881,391.234 310.5,393C 299.399,395.365 288.899,398.532 279,402.5C 275.65,402.507 272.316,402.507 269,402.5C 265.089,403.843 261.256,404.843 257.5,405.5C 254.399,404.351 251.399,404.684 248.5,406.5C 247.833,406.167 247.167,405.833 246.5,405.5C 224.663,409.549 202.663,412.049 180.5,413C 179,411.5 177.5,410 176,408.5C 172.96,414.368 168.46,415.868 162.5,413C 158.291,409.491 154.457,405.658 151,401.5C 148.449,394.796 146.282,387.962 144.5,381C 144.645,380.228 144.978,379.561 145.5,379C 144.042,373.788 143.042,368.455 142.5,363C 142.833,360.332 142.833,357.499 142.5,354.5C 143.084,356.743 144.25,358.743 146,360.5C 146.181,363.695 146.681,366.695 147.5,369.5C 147.192,371.924 147.526,374.257 148.5,376.5C 149.107,376.376 149.44,376.043 149.5,375.5C 151.63,373.873 153.63,372.04 155.5,370C 161.423,368.696 167.423,368.196 173.5,368.5C 174.528,373.084 175.861,377.584 177.5,382C 175.612,385.569 173.279,388.903 170.5,392C 169.668,392.688 169.002,392.521 168.5,391.5C 164.138,385.638 159.972,379.638 156,373.5C 153.233,375.758 151.066,378.425 149.5,381.5C 150.213,388.473 152.046,395.14 155,401.5C 158.775,403.974 162.275,406.807 165.5,410C 166.5,410.667 167.5,410.667 168.5,410C 169.373,408.955 170.373,408.122 171.5,407.5C 172.117,407.611 172.617,407.944 173,408.5C 173.956,407.106 175.289,406.439 177,406.5C 179.196,406.969 181.029,407.969 182.5,409.5C 194.843,408.249 207.177,406.915 219.5,405.5C 224.766,405.811 229.766,405.145 234.5,403.5C 239.822,403.02 245.155,402.687 250.5,402.5C 251.931,402.119 252.764,401.119 253,399.5C 253.671,400.252 254.504,400.586 255.5,400.5C 264.914,400.036 274.247,398.87 283.5,397C 291.427,394.191 299.427,391.691 307.5,389.5C 310.807,388.949 314.14,388.616 317.5,388.5C 317.433,387.041 317.766,385.708 318.5,384.5C 332.543,373.124 346.876,362.124 361.5,351.5C 364.112,350.629 366.779,349.963 369.5,349.5 Z"/></g>
<g><path style="opacity:1" fill="#fdfcfd" d="M 250.5,402.5 C 245.155,402.687 239.822,403.02 234.5,403.5C 229.269,403.444 224.269,404.111 219.5,405.5C 207.177,406.915 194.843,408.249 182.5,409.5C 181.376,407.208 180.043,405.042 178.5,403C 181.621,397.709 184.954,392.543 188.5,387.5C 200.742,384.142 212.908,380.476 225,376.5C 225.833,376.667 226.667,376.833 227.5,377C 235.5,385 243.5,393 251.5,401C 250.944,401.383 250.611,401.883 250.5,402.5 Z"/></g>
<g><path style="opacity:1" fill="#c091b6" d="M 147.5,369.5 C 148.167,371.5 148.833,373.5 149.5,375.5C 149.44,376.043 149.107,376.376 148.5,376.5C 147.526,374.257 147.192,371.924 147.5,369.5 Z"/></g>
<g><path style="opacity:1" fill="#bf8db3" d="M 183.5,363.5 C 184.913,366.219 185.58,369.219 185.5,372.5C 184.087,369.781 183.42,366.781 183.5,363.5 Z"/></g>
<g><path style="opacity:1" fill="#fbf7fa" d="M 180.5,361.5 C 182.778,370.381 183.945,379.381 184,388.5C 179.823,394.862 175.656,401.195 171.5,407.5C 170.373,408.122 169.373,408.955 168.5,410C 167.5,410.667 166.5,410.667 165.5,410C 162.275,406.807 158.775,403.974 155,401.5C 152.046,395.14 150.213,388.473 149.5,381.5C 151.066,378.425 153.233,375.758 156,373.5C 159.972,379.638 164.138,385.638 168.5,391.5C 169.002,392.521 169.668,392.688 170.5,392C 173.279,388.903 175.612,385.569 177.5,382C 175.861,377.584 174.528,373.084 173.5,368.5C 167.423,368.196 161.423,368.696 155.5,370C 153.63,372.04 151.63,373.873 149.5,375.5C 148.833,373.5 148.167,371.5 147.5,369.5C 147.336,366.813 147.503,364.146 148,361.5C 150.205,358.96 152.705,356.793 155.5,355C 163.442,355.584 171.442,356.084 179.5,356.5C 179.629,358.216 179.962,359.883 180.5,361.5 Z"/></g>
<g><path style="opacity:1" fill="#f8f2f6" d="M 162.5,371.5 C 165.448,371.223 168.281,371.556 171,372.5C 171.97,375.744 173.137,378.91 174.5,382C 173.392,384.112 171.892,385.946 170,387.5C 166.5,382.667 163,377.833 159.5,373C 160.737,372.768 161.737,372.268 162.5,371.5 Z"/></g>
<g><path style="opacity:1" fill="#af76a7" d="M 234.5,403.5 C 229.766,405.145 224.766,405.811 219.5,405.5C 224.269,404.111 229.269,403.444 234.5,403.5 Z"/></g>
</svg>
