<?xml version="1.0" encoding="UTF-8" standalone="no"?>
<!DOCTYPE svg PUBLIC "-//W3C//DTD SVG 1.1//EN" "http://www.w3.org/Graphics/SVG/1.1/DTD/svg11.dtd">
<!-- Created with Vectornator (http://vectornator.io/) -->
<svg height="100%" stroke-miterlimit="10" style="fill-rule:nonzero;clip-rule:evenodd;stroke-linecap:round;stroke-linejoin:round;" version="1.1" viewBox="0 0 333.94 264.05" width="100%" xml:space="preserve" xmlns="http://www.w3.org/2000/svg" xmlns:vectornator="http://vectornator.io" xmlns:xlink="http://www.w3.org/1999/xlink">
<defs/>
<clipPath id="ArtboardFrame">
<rect height="264.05" width="333.94" x="0" y="0"/>
</clipPath>
<g clip-path="url(#ArtboardFrame)" id="Layer_1-2" vectornator:layerName="Layer_1-2">
<g opacity="1">
<path d="M121.34 264.05C92 261.97 66.34 250.73 44.36 231.59C29.68 218.8 21.52 205.93 18.87 201.59C18.87 201.59 3.33 176.22 0.47 145.41C-0.04 140 0 134.87 0 134.87C0 134.87 0.04 130.37 0.5 125.63C4.1 88.76 23.06 61.42 23.06 61.42C25.73 57.59 33.4 46.85 46.43 36.09C90.51-0.32 150.29-5.77 201.63 20.2C203.48 21.13 204.48 20.89 205.61 19.19C209.87 12.8 214.48 6.71 220.79 2.14C226.35-1.88 231.54-0.1 233.41 6.47C235.92 15.27 237.86 24.18 238.52 33.32C238.73 36.29 239.82 35.71 241.48 34.48C251.42 27.08 262.65 22.73 274.76 20.54C282.89 19.07 287.76 22.93 286.74 29.97C285.95 35.4 283.85 40.3 280.19 44.46C274.64 50.76 269.06 57.04 262 61.76C261.09 62.37 262.06 61.6 264.86 64.51C264.93 64.59 265.38 65.03 265.44 65.12C270.06 71.18 274.37 72.02 279.51 69.06C284.12 66.4 288.78 63.8 293.54 61.41C299.07 58.63 302.54 60.73 303.27 66.9C303.9 72.21 302.64 77.32 302.02 82.51C301.93 83.25 301.73 84.07 302.48 84.54C303.35 85.08 303.84 84.22 304.36 83.79C310.24 78.94 314.61 72.93 317.42 65.89C323.3 51.16 322.79 51.08 326.06 33.3C326.18 32.66 326.29 32.15 326.42 31.58C326.68 32.09 327.03 32.59 327.18 33.13C331.12 47.99 333.36 61.38 333.9 73.31C334.37 83.8 331.66 93.88 328.66 103.87C326.57 110.81 325.09 117.81 326.38 125.22C328.47 137.19 327.62 148.96 322.74 160.24C320.72 164.92 318.18 166.05 313.7 163.7C306.28 159.79 298.28 158.94 290.17 158.48C278.75 157.83 267.52 159.8 256.26 161.22C250.25 161.98 247.62 164.52 246.53 170.36C245.35 176.68 243.66 182.89 240.66 188.55C218.17 231.04 184.47 258.04 135.71 264.02M22.33 91.49C4.67 128.51 12.28 176.7 40.89 208.68C63.46 233.9 90.97 243.75 124.13 234.61C140.65 230.06 152.61 219.6 160.05 204.09C160.42 203.15 160.88 202.23 161.14 201.26C164.42 189.36 157.57 174.57 145.36 167.08C143.68 166.05 142.19 164.77 141.23 162.98C143.27 162.1 145.23 162.68 147.17 163.36C162.41 168.72 173.21 178.82 179.58 193.67C180.13 194.94 180.71 197.04 182.51 194.67C195.73 177.21 195.51 149.26 182.06 131.83C181.8 131.49 181.69 131.02 181.51 130.61C182.17 130.62 182.91 130.46 183.49 130.68C186.72 131.92 189.69 133.66 192.27 135.96C201.27 144 207.57 153.97 212.02 165.04C217.54 178.79 216.8 192.7 212.06 206.54C211.89 207.04 211.91 207.6 211.85 208.13C212.27 207.8 212.78 207.54 213.11 207.14C215.07 204.73 217.09 202.36 218.91 199.85C228.65 186.41 234.51 171.28 238.18 155.22C238.74 152.76 239.87 151.52 242.54 151.31C247.2 150.94 251.85 150.32 256.47 149.6C274.64 146.74 292.79 144.69 310.98 149.44C313.13 150 314.49 148.97 314.78 146.73C315.13 143.97 315.48 141.21 315.73 138.44C316.43 130.76 316.54 123.14 312.83 116.03C312.39 115.04 312.4 114.06 312.83 113.07C316.96 103.45 318.87 93.24 320.83 83.04C320.94 82.44 320.81 81.79 320.8 81.16C320.37 81.59 319.85 81.96 319.53 82.45C315.74 88.23 311.67 93.73 305.43 97.15C298.58 100.91 290.94 96.91 290.18 89.22C289.83 85.65 290.51 82.21 291.13 78.74C291.21 78.31 291.15 77.86 291.15 77.41C290.71 77.52 290.23 77.56 289.83 77.76C284.96 80.13 280.1 82.54 275.23 84.92C272.2 86.41 269.57 85.74 267.27 83.39C265.39 81.47 263.52 79.57 261.31 77.98C249.6 69.56 238.89 60 229.45 49.06C227.36 46.64 225.93 43.87 225.68 40.7C225.12 33.68 224.77 26.64 224.3 19.61C224.25 18.8 224.52 17.63 223.43 17.35C222.36 17.08 221.64 17.95 221.06 18.75C218.25 22.66 215.12 26.32 212.78 30.59C210.63 34.52 207.46 35.6 203.21 34.09C200.38 33.09 197.67 31.73 194.94 30.47C162.18 15.45 128.64 11.37 94.21 24.02C60.85 36.35 35.52 57.52 22.33 91.49ZM124.21 251.73C150.68 251.61 171.81 243.22 190.05 227.42C197.59 220.9 203.17 212.9 206.19 203.33C212.4 183.66 207.56 165.76 197.14 148.83C196.36 147.55 195.3 146.45 194.36 145.26C194.57 146.79 194.63 148.35 194.99 149.84C197.62 160.63 198.42 171.47 195.59 182.32C192.84 192.86 188.08 202.32 179.76 209.68C179.46 209.95 179.06 210.11 178.71 210.32C178.6 209.89 178.49 209.46 178.4 209.03C176.18 198.53 173.13 188.43 164.77 180.91C164.45 180.62 164.04 180.44 163.68 180.2C163.77 180.59 163.82 181.01 163.95 181.38C171.38 202.69 165.12 223.2 147.06 236.75C136.88 244.38 125.11 247.9 112.83 250.14C112.48 250.2 112.14 250.33 111.8 250.42C112.14 250.54 112.48 250.73 112.82 250.76C117.34 251.15 121.87 251.51 124.21 251.7L124.21 251.7L124.21 251.73ZM273.41 34.09C273.03 33.17 272.39 33.17 271.77 33.42C262.31 37.16 252.97 41.13 245.26 48.03C241.62 51.29 241.75 51.16 245.43 54.38C247.48 56.18 248.86 56.07 250.97 54.47C258.63 48.65 265.74 42.23 272.49 35.4C272.86 35.02 273.12 34.52 273.41 34.1L273.41 34.1L273.41 34.09Z" fill="#222426" fill-rule="nonzero" opacity="1" stroke="none"/>
<path d="M312.84 116.05C316.56 123.16 316.44 130.78 315.74 138.46C315.49 141.23 315.14 143.99 314.79 146.75C314.51 148.99 313.15 150.02 310.99 149.46C292.8 144.7 274.65 146.75 256.48 149.62C251.86 150.35 247.21 150.97 242.55 151.33C239.88 151.54 238.75 152.78 238.19 155.24C234.52 171.3 228.66 186.43 218.92 199.87C217.1 202.38 215.08 204.75 213.12 207.16C212.79 207.56 212.29 207.82 211.86 208.15C211.92 207.62 211.9 207.06 212.07 206.56C216.8 192.72 217.55 178.81 212.03 165.06C207.58 153.98 201.28 144.02 192.28 135.98C189.71 133.68 186.73 131.95 183.5 130.7C182.92 130.47 182.19 130.64 181.52 130.63C181.7 131.04 181.81 131.5 182.07 131.85C195.52 149.28 195.74 177.23 182.52 194.69C180.72 197.06 180.13 194.96 179.59 193.69C173.22 178.83 162.42 168.74 147.18 163.38C145.24 162.7 143.28 162.13 141.24 163C142.2 164.79 143.69 166.07 145.37 167.1C157.57 174.58 164.43 189.38 161.15 201.28C160.88 202.25 160.43 203.17 160.06 204.11C158.54 203.99 157.01 203.95 155.5 203.75C139.46 201.65 124.2 197.02 109.93 189.33C88.24 177.64 71.49 160.96 59.9 139.23C49.19 119.15 44.37 97.6 44.82 74.86C55.32 70.58 66.33 68.64 77.59 68.32C92.22 67.91 106.83 68.69 121.34 70.72C151.13 74.9 180.08 82.33 208.08 93.37C233.96 103.57 259.53 114.85 287.77 117.08C296.15 117.74 304.57 118.41 312.85 116.06L312.85 116.06L312.84 116.05Z" fill="#9235ff" fill-rule="nonzero" opacity="1" stroke="none"/>
<path d="M312.84 116.05C304.56 118.41 296.15 117.74 287.76 117.07C259.52 114.84 233.95 103.56 208.07 93.36C180.06 82.32 151.12 74.89 121.33 70.71C106.81 68.67 92.21 67.89 77.58 68.31C66.33 68.63 55.31 70.57 44.81 74.85C44.26 75.08 43.69 75.27 43.17 75.56C35.4 79.8 28.68 85.4 22.33 91.5C35.52 57.52 60.85 36.35 94.24 24.08C128.66 11.43 162.21 15.51 194.97 30.53C197.71 31.78 200.41 33.14 203.24 34.15C207.49 35.66 210.66 34.58 212.81 30.65C215.15 26.38 218.28 22.72 221.09 18.81C221.67 18 222.39 17.14 223.46 17.41C224.55 17.69 224.27 18.85 224.33 19.67C224.81 26.7 225.16 33.74 225.71 40.76C225.96 43.93 227.39 46.7 229.48 49.12C238.93 60.06 249.63 69.61 261.34 78.04C263.55 79.63 265.41 81.53 267.3 83.45C269.6 85.8 272.23 86.47 275.26 84.98C280.13 82.59 284.99 80.19 289.86 77.82C290.26 77.63 290.74 77.59 291.18 77.47C291.18 77.91 291.23 78.37 291.16 78.8C290.54 82.27 289.85 85.72 290.21 89.28C290.97 96.96 298.61 100.96 305.46 97.21C311.7 93.79 315.77 88.29 319.56 82.51C319.88 82.01 320.4 81.65 320.83 81.22C320.85 81.85 320.98 82.5 320.86 83.1C318.91 93.3 316.99 103.51 312.86 113.13C312.43 114.12 312.42 115.1 312.86 116.09L312.86 116.09L312.84 116.05Z" fill="#8d7be4" fill-rule="nonzero" opacity="1" stroke="none"/>
<path d="M22.33 91.49C28.67 85.39 35.4 79.79 43.17 75.55C43.69 75.27 44.26 75.08 44.81 74.84C44.36 97.58 49.18 119.13 59.89 139.21C71.48 160.94 88.23 177.62 109.92 189.31C124.2 197.01 139.45 201.63 155.49 203.73C157 203.93 158.53 203.97 160.05 204.09C152.61 219.61 140.65 230.06 124.13 234.61C90.97 243.74 63.46 233.9 40.89 208.68C12.27 176.71 4.67 128.52 22.33 91.49Z" fill="#8b00e7" fill-rule="nonzero" opacity="1" stroke="none"/>
<path d="M124.21 251.73C121.87 251.54 117.35 251.17 112.82 250.79C112.47 250.76 112.14 250.57 111.8 250.45C112.14 250.35 112.48 250.23 112.83 250.17C125.11 247.93 136.88 244.41 147.06 236.78C165.13 223.23 171.39 202.72 163.95 181.41C163.82 181.03 163.77 180.62 163.68 180.23C164.05 180.46 164.45 180.65 164.77 180.94C173.13 188.46 176.18 198.56 178.4 209.06C178.49 209.49 178.61 209.92 178.71 210.35C179.06 210.14 179.46 209.98 179.76 209.71C188.07 202.35 192.84 192.89 195.59 182.35C198.42 171.5 197.62 160.66 194.99 149.87C194.63 148.38 194.56 146.82 194.36 145.29C195.29 146.47 196.35 147.58 197.14 148.86C207.56 165.79 212.4 183.69 206.19 203.36C203.17 212.92 197.59 220.92 190.05 227.45C171.81 243.25 150.68 251.64 124.21 251.76L124.21 251.76L124.21 251.73Z" fill="#fefefe" fill-rule="nonzero" opacity="1" stroke="none"/>
<path d="M273.41 34.09C273.12 34.51 272.87 35.01 272.49 35.39C265.74 42.22 258.63 48.64 250.97 54.46C248.85 56.07 247.48 56.17 245.43 54.37C241.75 51.15 241.62 51.28 245.26 48.02C252.98 41.12 262.31 37.15 271.77 33.41C272.39 33.16 273.02 33.16 273.41 34.08L273.41 34.08L273.41 34.09Z" fill="#8b57e1" fill-rule="nonzero" opacity="1" stroke="none"/>
</g>
<path d="M242.407 185.569C173.513 185.871 174.586 185.835 170.986 187.965C165.873 190.99 165.635 192.334 165.635 218.287C165.635 246.234 166.162 248.081 174.705 250.103C177.862 250.85 312.115 251.483 312.567 250.752C312.725 250.496 313.294 250.287 313.831 250.287C314.368 250.287 314.807 250.107 314.807 249.887C314.807 249.667 315.059 249.487 315.367 249.487C316.095 249.487 318.807 246.775 318.807 246.047C318.807 245.739 318.987 245.487 319.207 245.487C319.427 245.487 319.607 245.048 319.607 244.511C319.607 243.974 319.787 243.423 320.007 243.287C320.267 243.127 320.407 234.357 320.407 218.287C320.407 202.217 320.267 193.447 320.007 193.287C319.787 193.151 319.607 192.6 319.607 192.063C319.607 191.526 319.427 191.087 319.207 191.087C318.987 191.087 318.807 190.835 318.807 190.527C318.807 190.219 318.159 189.319 317.367 188.527C316.575 187.735 315.675 187.087 315.367 187.087C315.059 187.087 314.807 186.907 314.807 186.687C314.807 186.467 314.393 186.287 313.887 186.287C313.381 186.287 312.796 186.125 312.587 185.928C311.925 185.301 307.956 185.281 242.407 185.569M205.924 197.302C217.303 199.571 223.034 207.43 222.975 220.687C222.918 233.769 217.147 241.758 206.081 244.074C203.127 244.693 187.64 244.981 186.24 244.444C185.39 244.118 185.259 197.294 186.107 196.952C187.389 196.435 202.953 196.709 205.924 197.302M261.121 201.253C261.268 206.869 262.011 206.45 251.488 206.687L242.607 206.887L242.493 210.987L242.379 215.087L249.893 215.093C259.118 215.101 258.463 214.71 258.321 220.119L258.207 224.487L250.512 224.596C241.508 224.723 242.304 224.138 242.49 230.487L242.607 234.487L251.922 234.687C262.811 234.921 261.992 234.494 262.001 239.938C262.009 245.139 263.454 244.715 246.16 244.592L231.407 244.487L231.303 221.087C231.246 208.217 231.286 197.46 231.393 197.182C231.544 196.785 234.742 196.7 246.296 196.782L261.007 196.887L261.121 201.253M276.162 197.014C276.381 197.368 280.168 212.046 283.045 223.687C284.023 227.647 284.977 231.247 285.165 231.687C285.572 232.641 285.048 234.518 290.249 213.487C292.398 204.797 294.324 197.462 294.53 197.187C295.02 196.534 304.84 196.48 305.487 197.127C305.807 197.447 305.727 198.183 305.193 199.827C304.788 201.07 302.806 207.667 300.788 214.487C293.129 240.368 291.983 244.055 291.502 244.36C290.636 244.911 278.955 244.755 278.531 244.187C278.326 243.912 276.415 237.837 274.286 230.687C272.157 223.537 269.056 213.136 267.395 207.574C265.734 202.012 264.483 197.287 264.615 197.074C264.906 196.604 275.873 196.547 276.162 197.014M197.207 220.687L197.207 235.087L199.592 235.087C206.298 235.087 210.186 231.313 211.24 223.78C212.743 213.035 208.228 206.287 199.534 206.287L197.207 206.287L197.207 220.687" fill="#33fbc3" fill-rule="evenodd" opacity="1" stroke="none"/>
<path d="M186.591 197.587C186.485 197.862 186.446 208.437 186.503 221.087L186.607 244.087L193.607 244.211C214.123 244.575 222.407 237.751 222.407 220.487C222.407 206.99 216.64 199.664 204.441 197.664C199.941 196.926 186.865 196.87 186.591 197.587M231.793 197.582C231.686 197.86 231.646 208.437 231.703 221.087L231.807 244.087L246.507 244.192L261.207 244.297L261.207 239.899L261.207 235.501L251.707 235.394L242.207 235.287L242.096 229.787L241.984 224.287L249.809 224.287L257.634 224.287L257.521 219.987L257.407 215.687L249.694 215.578L241.982 215.47L242.094 210.778L242.207 206.087L251.407 205.887L260.607 205.687L260.607 201.487L260.607 197.287L246.296 197.182C235.063 197.099 231.944 197.185 231.793 197.582M265.111 197.316C264.973 197.454 265.018 197.954 265.211 198.427C265.404 198.9 265.951 200.637 266.426 202.287C266.901 203.937 267.437 205.737 267.618 206.287C268.07 207.668 270.376 215.424 272.049 221.187C272.511 222.782 273.039 224.537 273.221 225.087C273.403 225.637 273.943 227.437 274.421 229.087C274.899 230.737 275.439 232.537 275.621 233.087C275.803 233.637 276.347 235.437 276.829 237.087C277.311 238.737 278.005 240.987 278.371 242.087L279.037 244.087L285.126 244.197C291.987 244.322 291.34 244.618 292.362 240.887C292.88 238.996 294.331 234.109 294.796 232.687C294.977 232.137 295.515 230.337 295.993 228.687C296.471 227.037 297.008 225.237 297.188 224.687C297.367 224.137 297.714 222.967 297.957 222.087C298.473 220.223 299.924 215.336 300.392 213.887C300.569 213.337 300.936 212.077 301.207 211.087C301.478 210.097 301.847 208.837 302.026 208.287C302.206 207.737 302.749 205.937 303.233 204.287C303.717 202.637 304.361 200.509 304.665 199.557C305.437 197.142 305.332 197.087 299.975 197.087C295.389 197.087 295.174 197.125 294.818 197.987C294.614 198.482 292.635 206.267 290.42 215.287C288.205 224.307 286.261 232.122 286.1 232.654C285.513 234.593 284.943 233.868 284.013 229.996C283.035 225.929 282.87 225.268 278.476 207.887L275.797 197.287L270.58 197.176C267.71 197.115 265.25 197.178 265.111 197.316M205.427 206.887C214.385 210.813 214.369 230.208 205.403 234.462C203.321 235.45 197.764 236.115 196.986 235.469C196.2 234.817 196.114 206.74 196.896 205.958C197.625 205.229 202.973 205.812 205.427 206.887" fill="#040706" fill-rule="evenodd" opacity="1" stroke="none"/>
<path d="M186.107 196.952C185.259 197.294 185.39 244.118 186.24 244.444C189.841 245.826 207.092 244.355 211.522 242.288C226.977 235.078 227.248 206.768 211.933 199.337C207.304 197.09 189.775 195.472 186.107 196.952M231.393 197.182C231.286 197.46 231.246 208.217 231.303 221.087L231.407 244.487L246.16 244.592C263.454 244.715 262.009 245.139 262.001 239.938C261.992 234.494 262.811 234.921 251.922 234.687L242.607 234.487L242.49 230.487C242.304 224.138 241.508 224.723 250.512 224.596L258.207 224.487L258.321 220.119C258.463 214.71 259.118 215.101 249.893 215.093L242.379 215.087L242.493 210.987L242.607 206.887L251.488 206.687C262.011 206.45 261.268 206.869 261.121 201.253L261.007 196.887L246.296 196.782C234.742 196.7 231.544 196.785 231.393 197.182M264.615 197.074C264.483 197.287 265.734 202.012 267.395 207.574C269.056 213.136 272.157 223.537 274.286 230.687C276.415 237.837 278.326 243.912 278.531 244.187C278.955 244.755 290.636 244.911 291.502 244.36C291.983 244.055 293.129 240.368 300.788 214.487C302.806 207.667 304.788 201.07 305.193 199.827C305.727 198.183 305.807 197.447 305.487 197.127C304.84 196.48 295.02 196.534 294.53 197.187C294.324 197.462 292.398 204.797 290.249 213.487C285.048 234.518 285.572 232.641 285.165 231.687C284.977 231.247 284.023 227.647 283.045 223.687C280.168 212.046 276.381 197.368 276.162 197.014C275.873 196.547 264.906 196.604 264.615 197.074M204.441 197.664C216.64 199.664 222.407 206.99 222.407 220.487C222.407 237.751 214.123 244.575 193.607 244.211L186.607 244.087L186.503 221.087C186.446 208.437 186.485 197.862 186.591 197.587C186.865 196.87 199.941 196.926 204.441 197.664M260.607 201.487L260.607 205.687L251.407 205.887L242.207 206.087L242.094 210.778L241.982 215.47L249.694 215.578L257.407 215.687L257.521 219.987L257.634 224.287L249.809 224.287L241.984 224.287L242.096 229.787L242.207 235.287L251.707 235.394L261.207 235.501L261.207 239.899L261.207 244.297L246.507 244.192L231.807 244.087L231.703 221.087C231.646 208.437 231.686 197.86 231.793 197.582C231.944 197.185 235.063 197.099 246.296 197.182L260.607 197.287L260.607 201.487M278.476 207.887C282.87 225.268 283.035 225.929 284.013 229.996C284.943 233.868 285.513 234.593 286.1 232.654C286.261 232.122 288.205 224.307 290.42 215.287C292.635 206.267 294.614 198.482 294.818 197.987C295.174 197.125 295.389 197.087 299.975 197.087C305.332 197.087 305.437 197.142 304.665 199.557C304.361 200.509 303.717 202.637 303.233 204.287C302.749 205.937 302.206 207.737 302.026 208.287C301.847 208.837 301.478 210.097 301.207 211.087C300.936 212.077 300.569 213.337 300.392 213.887C299.924 215.336 298.473 220.223 297.957 222.087C297.714 222.967 297.367 224.137 297.188 224.687C297.008 225.237 296.471 227.037 295.993 228.687C295.515 230.337 294.977 232.137 294.796 232.687C294.331 234.109 292.88 238.996 292.362 240.887C291.34 244.618 291.987 244.322 285.126 244.197L279.037 244.087L278.371 242.087C278.005 240.987 277.311 238.737 276.829 237.087C276.347 235.437 275.803 233.637 275.621 233.087C275.439 232.537 274.899 230.737 274.421 229.087C273.943 227.437 273.403 225.637 273.221 225.087C273.039 224.537 272.511 222.782 272.049 221.187C270.376 215.424 268.07 207.668 267.618 206.287C267.437 205.737 266.901 203.937 266.426 202.287C265.951 200.637 265.404 198.9 265.211 198.427C264.679 197.122 264.962 197.056 270.58 197.176L275.797 197.287L278.476 207.887M196.896 205.958C196.114 206.74 196.2 234.817 196.986 235.469C197.764 236.115 203.321 235.45 205.403 234.462C214.369 230.208 214.385 210.813 205.427 206.887C202.973 205.812 197.625 205.229 196.896 205.958M203.958 206.91C209.53 208.564 212.429 215.281 211.24 223.78C210.186 231.313 206.298 235.087 199.592 235.087L197.207 235.087L197.207 220.687L197.207 206.287L199.534 206.287C200.814 206.287 202.805 206.567 203.958 206.91" fill="#21ac86" fill-rule="evenodd" opacity="1" stroke="none"/>
</g>
</svg>
