<svg id="svg" version="1.1" xmlns="http://www.w3.org/2000/svg" xmlns:xlink="http://www.w3.org/1999/xlink" width="400" height="400" viewBox="0, 0, 400,400"><g id="svgg"><path id="path0" d="M154.800 236.000 L 154.800 374.800 245.200 374.800 L 335.600 374.800 335.600 350.000 L 335.600 325.200 277.600 325.200 L 219.600 325.200 219.600 316.800 L 219.600 308.400 194.700 308.395 C 165.832 308.390,165.549 308.358,162.148 304.734 C 158.856 301.226,158.809 300.821,158.809 275.600 C 158.809 250.379,158.856 249.974,162.148 246.466 C 165.549 242.842,165.832 242.810,194.700 242.805 L 219.600 242.800 219.600 170.000 L 219.600 97.200 187.200 97.200 L 154.800 97.200 154.800 236.000 " stroke="none" fill="#9434fc" fill-rule="evenodd"></path><path id="path1" d="M236.000 242.882 C 167.106 243.184,168.179 243.148,164.579 245.278 C 159.466 248.303,159.228 249.647,159.228 275.600 C 159.228 303.547,159.755 305.394,168.298 307.416 C 171.455 308.163,305.708 308.796,306.160 308.065 C 306.318 307.809,306.887 307.600,307.424 307.600 C 307.961 307.600,308.400 307.420,308.400 307.200 C 308.400 306.980,308.652 306.800,308.960 306.800 C 309.688 306.800,312.400 304.088,312.400 303.360 C 312.400 303.052,312.580 302.800,312.800 302.800 C 313.020 302.800,313.200 302.361,313.200 301.824 C 313.200 301.287,313.380 300.736,313.600 300.600 C 313.860 300.440,314.000 291.670,314.000 275.600 C 314.000 259.530,313.860 250.760,313.600 250.600 C 313.380 250.464,313.200 249.913,313.200 249.376 C 313.200 248.839,313.020 248.400,312.800 248.400 C 312.580 248.400,312.400 248.148,312.400 247.840 C 312.400 247.532,311.752 246.632,310.960 245.840 C 310.168 245.048,309.268 244.400,308.960 244.400 C 308.652 244.400,308.400 244.220,308.400 244.000 C 308.400 243.780,307.986 243.600,307.480 243.600 C 306.974 243.600,306.389 243.438,306.180 243.241 C 305.518 242.614,301.549 242.594,236.000 242.882 M199.517 254.615 C 210.896 256.884,216.627 264.743,216.568 278.000 C 216.511 291.082,210.740 299.071,199.674 301.387 C 196.720 302.006,181.233 302.294,179.833 301.757 C 178.983 301.431,178.852 254.607,179.700 254.265 C 180.982 253.748,196.546 254.022,199.517 254.615 M254.714 258.566 C 254.861 264.182,255.604 263.763,245.081 264.000 L 236.200 264.200 236.086 268.300 L 235.972 272.400 243.486 272.406 C 252.711 272.414,252.056 272.023,251.914 277.432 L 251.800 281.800 244.105 281.909 C 235.101 282.036,235.897 281.451,236.083 287.800 L 236.200 291.800 245.515 292.000 C 256.404 292.234,255.585 291.807,255.594 297.251 C 255.602 302.452,257.047 302.028,239.753 301.905 L 225.000 301.800 224.896 278.400 C 224.839 265.530,224.879 254.773,224.986 254.495 C 225.137 254.098,228.335 254.013,239.889 254.095 L 254.600 254.200 254.714 258.566 M269.755 254.327 C 269.974 254.681,273.761 269.359,276.638 281.000 C 277.616 284.960,278.570 288.560,278.758 289.000 C 279.165 289.954,278.641 291.831,283.842 270.800 C 285.991 262.110,287.917 254.775,288.123 254.500 C 288.613 253.847,298.433 253.793,299.080 254.440 C 299.400 254.760,299.320 255.496,298.786 257.140 C 298.381 258.383,296.399 264.980,294.381 271.800 C 286.722 297.681,285.576 301.368,285.095 301.673 C 284.229 302.224,272.548 302.068,272.124 301.500 C 271.919 301.225,270.008 295.150,267.879 288.000 C 265.750 280.850,262.649 270.449,260.988 264.887 C 259.327 259.325,258.076 254.600,258.208 254.387 C 258.499 253.917,269.466 253.860,269.755 254.327 M190.800 278.000 L 190.800 292.400 193.185 292.400 C 199.891 292.400,203.779 288.626,204.833 281.093 C 206.336 270.348,201.821 263.600,193.127 263.600 L 190.800 263.600 190.800 278.000 " stroke="none" fill="#33fbc3" fill-rule="evenodd"></path><path id="path2" d="M180.184 254.900 C 180.078 255.175,180.039 265.750,180.096 278.400 L 180.200 301.400 187.200 301.524 C 207.716 301.888,216.000 295.064,216.000 277.800 C 216.000 264.303,210.233 256.977,198.034 254.977 C 193.534 254.239,180.458 254.183,180.184 254.900 M225.386 254.895 C 225.279 255.173,225.239 265.750,225.296 278.400 L 225.400 301.400 240.100 301.505 L 254.800 301.610 254.800 297.212 L 254.800 292.814 245.300 292.707 L 235.800 292.600 235.689 287.100 L 235.577 281.600 243.402 281.600 L 251.227 281.600 251.114 277.300 L 251.000 273.000 243.287 272.891 L 235.575 272.783 235.687 268.091 L 235.800 263.400 245.000 263.200 L 254.200 263.000 254.200 258.800 L 254.200 254.600 239.889 254.495 C 228.656 254.412,225.537 254.498,225.386 254.895 M258.704 254.629 C 258.566 254.767,258.611 255.267,258.804 255.740 C 258.997 256.213,259.544 257.950,260.019 259.600 C 260.494 261.250,261.030 263.050,261.211 263.600 C 261.663 264.981,263.969 272.737,265.642 278.500 C 266.104 280.095,266.632 281.850,266.814 282.400 C 266.996 282.950,267.536 284.750,268.014 286.400 C 268.492 288.050,269.032 289.850,269.214 290.400 C 269.396 290.950,269.940 292.750,270.422 294.400 C 270.904 296.050,271.598 298.300,271.964 299.400 L 272.630 301.400 278.719 301.510 C 285.580 301.635,284.933 301.931,285.955 298.200 C 286.473 296.309,287.924 291.422,288.389 290.000 C 288.570 289.450,289.108 287.650,289.586 286.000 C 290.064 284.350,290.601 282.550,290.781 282.000 C 290.960 281.450,291.307 280.280,291.550 279.400 C 292.066 277.536,293.517 272.649,293.985 271.200 C 294.162 270.650,294.529 269.390,294.800 268.400 C 295.071 267.410,295.440 266.150,295.619 265.600 C 295.799 265.050,296.342 263.250,296.826 261.600 C 297.310 259.950,297.954 257.822,298.258 256.870 C 299.030 254.455,298.925 254.400,293.568 254.400 C 288.982 254.400,288.767 254.438,288.411 255.300 C 288.207 255.795,286.228 263.580,284.013 272.600 C 281.798 281.620,279.854 289.435,279.693 289.967 C 279.106 291.906,278.536 291.181,277.606 287.309 C 276.628 283.242,276.463 282.581,272.069 265.200 L 269.390 254.600 264.173 254.489 C 261.303 254.428,258.843 254.491,258.704 254.629 M199.020 264.200 C 207.978 268.126,207.962 287.521,198.996 291.775 C 196.914 292.763,191.357 293.428,190.579 292.782 C 189.793 292.130,189.707 264.053,190.489 263.271 C 191.218 262.542,196.566 263.125,199.020 264.200 " stroke="none" fill="#040706" fill-rule="evenodd"></path><path id="path3" d="M63.600 200.000 L 63.600 375.600 96.000 375.600 L 128.400 375.600 128.400 224.800 L 128.400 74.000 232.800 74.000 L 337.200 74.000 337.200 49.200 L 337.200 24.400 200.400 24.400 L 63.600 24.400 63.600 200.000 M167.598 243.369 C 163.041 244.628,160.585 247.136,159.342 251.800 C 158.929 253.350,158.809 258.709,158.809 275.600 C 158.809 301.015,158.895 301.701,162.466 305.052 C 166.041 308.407,166.006 308.404,194.800 308.304 L 219.800 308.217 194.400 307.988 C 156.629 307.648,159.228 310.041,159.228 275.600 C 159.228 249.938,159.477 248.453,164.276 245.417 C 167.351 243.472,167.602 243.454,194.400 243.212 L 219.800 242.983 194.600 242.927 C 175.583 242.885,168.958 242.994,167.598 243.369 " stroke="none" fill="#8c7ce4" fill-rule="evenodd"></path><path id="path4" d="M179.700 254.265 C 178.852 254.607,178.983 301.431,179.833 301.757 C 183.434 303.139,200.685 301.668,205.115 299.601 C 220.570 292.391,220.841 264.081,205.526 256.650 C 200.897 254.403,183.368 252.785,179.700 254.265 M224.986 254.495 C 224.879 254.773,224.839 265.530,224.896 278.400 L 225.000 301.800 239.753 301.905 C 257.047 302.028,255.602 302.452,255.594 297.251 C 255.585 291.807,256.404 292.234,245.515 292.000 L 236.200 291.800 236.083 287.800 C 235.897 281.451,235.101 282.036,244.105 281.909 L 251.800 281.800 251.914 277.432 C 252.056 272.023,252.711 272.414,243.486 272.406 L 235.972 272.400 236.086 268.300 L 236.200 264.200 245.081 264.000 C 255.604 263.763,254.861 264.182,254.714 258.566 L 254.600 254.200 239.889 254.095 C 228.335 254.013,225.137 254.098,224.986 254.495 M258.208 254.387 C 258.076 254.600,259.327 259.325,260.988 264.887 C 262.649 270.449,265.750 280.850,267.879 288.000 C 270.008 295.150,271.919 301.225,272.124 301.500 C 272.548 302.068,284.229 302.224,285.095 301.673 C 285.576 301.368,286.722 297.681,294.381 271.800 C 296.399 264.980,298.381 258.383,298.786 257.140 C 299.320 255.496,299.400 254.760,299.080 254.440 C 298.433 253.793,288.613 253.847,288.123 254.500 C 287.917 254.775,285.991 262.110,283.842 270.800 C 278.641 291.831,279.165 289.954,278.758 289.000 C 278.570 288.560,277.616 284.960,276.638 281.000 C 273.761 269.359,269.974 254.681,269.755 254.327 C 269.466 253.860,258.499 253.917,258.208 254.387 M198.034 254.977 C 210.233 256.977,216.000 264.303,216.000 277.800 C 216.000 295.064,207.716 301.888,187.200 301.524 L 180.200 301.400 180.096 278.400 C 180.039 265.750,180.078 255.175,180.184 254.900 C 180.458 254.183,193.534 254.239,198.034 254.977 M254.200 258.800 L 254.200 263.000 245.000 263.200 L 235.800 263.400 235.687 268.091 L 235.575 272.783 243.287 272.891 L 251.000 273.000 251.114 277.300 L 251.227 281.600 243.402 281.600 L 235.577 281.600 235.689 287.100 L 235.800 292.600 245.300 292.707 L 254.800 292.814 254.800 297.212 L 254.800 301.610 240.100 301.505 L 225.400 301.400 225.296 278.400 C 225.239 265.750,225.279 255.173,225.386 254.895 C 225.537 254.498,228.656 254.412,239.889 254.495 L 254.200 254.600 254.200 258.800 M272.069 265.200 C 276.463 282.581,276.628 283.242,277.606 287.309 C 278.536 291.181,279.106 291.906,279.693 289.967 C 279.854 289.435,281.798 281.620,284.013 272.600 C 286.228 263.580,288.207 255.795,288.411 255.300 C 288.767 254.438,288.982 254.400,293.568 254.400 C 298.925 254.400,299.030 254.455,298.258 256.870 C 297.954 257.822,297.310 259.950,296.826 261.600 C 296.342 263.250,295.799 265.050,295.619 265.600 C 295.440 266.150,295.071 267.410,294.800 268.400 C 294.529 269.390,294.162 270.650,293.985 271.200 C 293.517 272.649,292.066 277.536,291.550 279.400 C 291.307 280.280,290.960 281.450,290.781 282.000 C 290.601 282.550,290.064 284.350,289.586 286.000 C 289.108 287.650,288.570 289.450,288.389 290.000 C 287.924 291.422,286.473 296.309,285.955 298.200 C 284.933 301.931,285.580 301.635,278.719 301.510 L 272.630 301.400 271.964 299.400 C 271.598 298.300,270.904 296.050,270.422 294.400 C 269.940 292.750,269.396 290.950,269.214 290.400 C 269.032 289.850,268.492 288.050,268.014 286.400 C 267.536 284.750,266.996 282.950,266.814 282.400 C 266.632 281.850,266.104 280.095,265.642 278.500 C 263.969 272.737,261.663 264.981,261.211 263.600 C 261.030 263.050,260.494 261.250,260.019 259.600 C 259.544 257.950,258.997 256.213,258.804 255.740 C 258.272 254.435,258.555 254.369,264.173 254.489 L 269.390 254.600 272.069 265.200 M190.489 263.271 C 189.707 264.053,189.793 292.130,190.579 292.782 C 191.357 293.428,196.914 292.763,198.996 291.775 C 207.962 287.521,207.978 268.126,199.020 264.200 C 196.566 263.125,191.218 262.542,190.489 263.271 M197.551 264.223 C 203.123 265.877,206.022 272.594,204.833 281.093 C 203.779 288.626,199.891 292.400,193.185 292.400 L 190.800 292.400 190.800 278.000 L 190.800 263.600 193.127 263.600 C 194.407 263.600,196.398 263.880,197.551 264.223 " stroke="none" fill="#21ac86" fill-rule="evenodd"></path></g></svg>
